<mxfile host="Electron" modified="2023-11-21T18:24:46.074Z" agent="Mozilla/5.0 (X11; Linux x86_64) AppleWebKit/537.36 (KHTML, like Gecko) draw.io/22.0.3 Chrome/114.0.5735.289 Electron/25.8.4 Safari/537.36" etag="ww7Xspn8JArUtI3WlWg_" version="22.0.3" type="device">
  <diagram name="Page-1" id="JIRYrXsw5l8v6Ri7uKWN">
    <mxGraphModel dx="880" dy="-647" grid="1" gridSize="10" guides="1" tooltips="1" connect="1" arrows="1" fold="1" page="1" pageScale="1" pageWidth="827" pageHeight="1169" math="0" shadow="0">
      <root>
        <mxCell id="0" />
        <mxCell id="1" parent="0" />
        <mxCell id="ipN-eBTuBick_C5BOzBj-1" value="" style="rounded=0;whiteSpace=wrap;html=1;fillColor=#ffe6cc;strokeColor=#d79b00;" vertex="1" parent="1">
          <mxGeometry x="40" y="1200" width="760" height="240" as="geometry" />
        </mxCell>
        <mxCell id="ipN-eBTuBick_C5BOzBj-2" value="IDataRepository/DataRepository" style="text;html=1;strokeColor=none;fillColor=none;align=center;verticalAlign=middle;whiteSpace=wrap;rounded=0;" vertex="1" parent="1">
          <mxGeometry x="40" y="1200" width="200" height="30" as="geometry" />
        </mxCell>
        <mxCell id="ipN-eBTuBick_C5BOzBj-3" value="&lt;p style=&quot;margin:0px;margin-top:10px;text-align:center;text-decoration:underline;&quot;&gt;CreateAsync(TEntity):&lt;/p&gt;&lt;p style=&quot;margin:0px;margin-top:10px;text-align:center;text-decoration:underline;&quot;&gt;Task&lt;/p&gt;" style="shape=rect;html=1;overflow=fill;whiteSpace=wrap;" vertex="1" parent="1">
          <mxGeometry x="50" y="1232.5" width="140" height="57.5" as="geometry" />
        </mxCell>
        <mxCell id="ipN-eBTuBick_C5BOzBj-4" value="&lt;p style=&quot;margin:0px;margin-top:10px;text-align:center;text-decoration:underline;&quot;&gt;GetAllAsync():&lt;/p&gt;&lt;p style=&quot;margin:0px;margin-top:10px;text-align:center;text-decoration:underline;&quot;&gt;IEnumerable&amp;lt;TEntity&amp;gt;&lt;/p&gt;" style="shape=rect;html=1;overflow=fill;whiteSpace=wrap;" vertex="1" parent="1">
          <mxGeometry x="200" y="1232.5" width="140" height="57.5" as="geometry" />
        </mxCell>
        <mxCell id="ipN-eBTuBick_C5BOzBj-5" value="&lt;p style=&quot;margin:0px;margin-top:10px;text-align:center;text-decoration:underline;&quot;&gt;GetByIdAsync(TKey,):&lt;/p&gt;&lt;p style=&quot;margin:0px;margin-top:10px;text-align:center;text-decoration:underline;&quot;&gt;TEntity?&lt;/p&gt;" style="shape=rect;html=1;overflow=fill;whiteSpace=wrap;" vertex="1" parent="1">
          <mxGeometry x="350" y="1232.5" width="140" height="57.5" as="geometry" />
        </mxCell>
        <mxCell id="ipN-eBTuBick_C5BOzBj-6" value="&lt;p style=&quot;margin:0px;margin-top:10px;text-align:center;text-decoration:underline;&quot;&gt;GetPageAsync(Expression&amp;lt;Func&amp;lt;TEntity, bool&amp;gt;&amp;gt;, int size):&lt;/p&gt;&lt;p style=&quot;margin:0px;margin-top:10px;text-align:center;text-decoration:underline;&quot;&gt;&lt;/p&gt;&lt;u&gt;IEnumerable&lt;/u&gt;&lt;span style=&quot;text-decoration-line: underline; background-color: initial;&quot;&gt;&amp;lt;TEntity&amp;gt;&lt;/span&gt;" style="shape=rect;html=1;overflow=fill;whiteSpace=wrap;" vertex="1" parent="1">
          <mxGeometry x="50" y="1370" width="740" height="57.5" as="geometry" />
        </mxCell>
        <mxCell id="ipN-eBTuBick_C5BOzBj-7" value="&lt;p style=&quot;margin:0px;margin-top:10px;text-align:center;text-decoration:underline;&quot;&gt;SingleOrDefaultAsync(Expression&amp;lt;Func&amp;lt;TEntity, bool&amp;gt;&amp;gt;):&lt;/p&gt;&lt;p style=&quot;margin:0px;margin-top:10px;text-align:center;text-decoration:underline;&quot;&gt;TEntity?&lt;/p&gt;" style="shape=rect;html=1;overflow=fill;whiteSpace=wrap;" vertex="1" parent="1">
          <mxGeometry x="50" y="1300" width="380" height="57.5" as="geometry" />
        </mxCell>
        <mxCell id="ipN-eBTuBick_C5BOzBj-8" value="&lt;p style=&quot;margin:0px;margin-top:10px;text-align:center;text-decoration:underline;&quot;&gt;FindAsync(Expression&amp;lt;Func&amp;lt;TEntity, bool&amp;gt;&amp;gt;):&lt;/p&gt;&lt;p style=&quot;margin:0px;margin-top:10px;text-align:center;text-decoration:underline;&quot;&gt;IEnumerable&amp;lt;TEntity&amp;gt;&lt;br&gt;&lt;/p&gt;" style="shape=rect;html=1;overflow=fill;whiteSpace=wrap;" vertex="1" parent="1">
          <mxGeometry x="440" y="1300" width="350" height="57.5" as="geometry" />
        </mxCell>
        <mxCell id="ipN-eBTuBick_C5BOzBj-9" value="&lt;p style=&quot;margin:0px;margin-top:10px;text-align:center;text-decoration:underline;&quot;&gt;UpdateAsync(TEntity):&lt;/p&gt;&lt;p style=&quot;margin:0px;margin-top:10px;text-align:center;text-decoration:underline;&quot;&gt;TEntity&lt;/p&gt;" style="shape=rect;html=1;overflow=fill;whiteSpace=wrap;" vertex="1" parent="1">
          <mxGeometry x="500" y="1232.5" width="140" height="57.5" as="geometry" />
        </mxCell>
        <mxCell id="ipN-eBTuBick_C5BOzBj-10" value="&lt;p style=&quot;margin:0px;margin-top:10px;text-align:center;text-decoration:underline;&quot;&gt;DeleteAsync(TKey):&lt;/p&gt;&lt;p style=&quot;margin:0px;margin-top:10px;text-align:center;text-decoration:underline;&quot;&gt;TEntity&lt;/p&gt;" style="shape=rect;html=1;overflow=fill;whiteSpace=wrap;" vertex="1" parent="1">
          <mxGeometry x="650" y="1232.5" width="140" height="57.5" as="geometry" />
        </mxCell>
      </root>
    </mxGraphModel>
  </diagram>
</mxfile>
